#!OML:ASF H:\Terrain\Patient Classification 1\Animal2\Wednesday\Animal2.ASF
:FULLY-SPECIFIED
:DEGREES
792
root 9.02835 16.1062 -7.93982 -3.34687 11.4734 -3.87407
lowerback 8.21833 6.21182 5.66192
upperback -1.19606 8.70521 -3.25782
thorax -4.48305 4.13911 -7.53092
lowerneck 1.55362 -0.595542 10.5912
upperneck -18.7072 -2.45709 -15.6568
head -6.10266 -0.756249 -6.78569
rclavicle 8.29429e-014 9.54166e-015
rhumerus 64.2601 -48.5328 -30.3512
rradius 44.2093
rwrist -30.7417
rhand -46.7319 13.3557
rfingers 7.12502
rthumb -19.4495 -15.6916
lclavicle 8.29429e-014 9.54166e-015
lhumerus -76.9673 28.2074 -59.1002
lradius 23.2749
lwrist 42.9199
lhand -42.5357 54.0364
lfingers 7.12502
lthumb -15.4112 83.4419
rfemur 3.79262 -21.4497 16.2955
rtibia 44.125
rfoot -38.597 -23.5521
rtoes -8.19914
lfemur -41.6513 -13.4673 2.5252
ltibia 36.5174
lfoot 6.995 -19.7203
ltoes -2.25359
793
root 9.03839 16.0777 -7.92573 -3.35986 11.2792 -4.41193
lowerback 7.89059 6.22286 5.9481
upperback -0.780668 8.73342 -3.0678
thorax -3.84491 4.1924 -7.40475
lowerneck 4.88058 -0.379661 8.72255
upperneck -22.9495 -2.07827 -13.457
head -8.01436 -0.415926 -5.90611
rclavicle -9.69075e-014 -1.27222e-014
rhumerus 64.1727 -49.1976 -30.347
rradius 44.3181
rwrist -30.9655
rhand -46.698 13.2279
rfingers 7.12502
rthumb -19.4169 -15.8226
lclavicle -9.69075e-014 -1.27222e-014
lhumerus -79.1733 27.6834 -60.629
lradius 23.1811
lwrist 43.8717
lhand -46.6935 59.5881
lfingers 7.12502
lthumb -19.4126 88.6391
rfemur 3.55612 -21.3837 16.8756
rtibia 44.4136
rfoot -38.6532 -23.7708
rtoes -8.31518
lfemur -41.6963 -13.2101 3.10905
ltibia 36.6898
lfoot 5.54393 -19.7606
ltoes -4.96248
794
root 9.05106 16.0464 -7.91303 -3.38387 11.0991 -4.86816
lowerback 7.83707 6.2141 6.12724
upperback -0.605141 8.73744 -2.94179
thorax -3.62328 4.2074 -7.3473
lowerneck -0.172606 -0.61997 10.4789
upperneck -17.6412 -2.53716 -15.7617
head -5.47528 -0.864556 -6.75434
rclavicle 4.07509e-014 2.22639e-014
rhumerus 63.4713 -49.5642 -29.8295
rradius 44.3702
rwrist -31.4177
rhand -46.6258 13.0263
rfingers 7.12502
rthumb -19.3476 -16.0312
lclavicle 4.07509e-014 2.22639e-014
lhumerus -80.574 26.6858 -60.9998
lradius 23.3164
lwrist 45.5232
lhand -47.4921 58.6163
lfingers 7.12502
lthumb -20.1803 87.5881
rfemur 3.34202 -21.3956 17.3043
rtibia 44.7265
rfoot -38.4163 -24.2121
rtoes -9.2128
lfemur -41.6821 -12.8705 3.5357
ltibia 36.9772
lfoot 4.01259 -19.8952
ltoes -6.61228
795
root 9.06446 16.0168 -7.8995 -3.43308 10.8978 -5.07552
lowerback 8.18284 6.24051 5.98808
upperback -0.638969 8.77867 -2.90778
thorax -3.87097 4.21637 -7.29023
lowerneck 1.52735 -0.691708 9.74737
upperneck -19.3103 -2.5466 -14.6497
head -6.29226 -0.798852 -6.30452
rclavicle 4.07509e-015 3.18055e-015
rhumerus 61.7237 -49.6206 -28.3205
rradius 44.4041
rwrist -32.0357
rhand -46.919 13.4613
rfingers 7.12502
rthumb -19.6294 -15.5677
lclavicle 4.07509e-015 3.18055e-015
lhumerus -81.6576 25.672 -61.1178
lradius 23.6128
lwrist 46.6834
lhand -49.3159 59.0529
lfingers 7.12502
lthumb -21.9323 87.8296
rfemur 3.23852 -21.3822 17.4117
rtibia 45.0581
rfoot -38.3239 -24.4141
rtoes -10.0761
lfemur -41.5636 -12.5025 3.63935
ltibia 37.3045
lfoot 3.21827 -20.1903
ltoes -5.81498
796
root 9.07758 15.9888 -7.88155 -3.51144 10.6617 -5.07786
lowerback 8.70151 6.2811 5.62684
upperback -0.716308 8.82086 -2.93962
thorax -4.28357 4.22066 -7.21075
lowerneck 2.49586 -0.797389 9.59033
upperneck -20.1489 -2.64775 -14.2403
head -6.74477 -0.818698 -6.164
rclavicle -1.53561e-014 6.36111e-015
rhumerus 59.8646 -49.5987 -26.7174
rradius 44.3932
rwrist -32.557
rhand -47.4669 13.6314
rfingers 7.12502
rthumb -20.1561 -15.343
lclavicle -1.53561e-014 6.36111e-015
lhumerus -82.8924 24.8097 -61.7027
lradius 23.839
lwrist 46.6119
lhand -48.4966 60.0532
lfingers 7.12502
lthumb -21.1455 88.92
rfemur 3.26248 -21.4002 17.2126
rtibia 45.386
rfoot -38.2983 -24.5192
rtoes -10.0713
lfemur -41.3533 -12.1079 3.48269
ltibia 37.6301
lfoot 2.53483 -20.7036
ltoes -5.09465
